<?xml version="1.0" encoding="UTF-8" standalone="no"?>
<svg
   data-name="Layer 1"
   viewBox="0 0 64 64"
   x="0px"
   y="0px"
   version="1.1"
   id="svg2"
   sodipodi:docname="pandiolabs_logo_v1.svg"
   inkscape:version="1.4.2 (ebf0e940d0, 2025-05-08)"
   width="64"
   height="64"
   inkscape:export-filename="pandiolabs_logo_transp_v1.png"
   inkscape:export-xdpi="768"
   inkscape:export-ydpi="768"
   xmlns:inkscape="http://www.inkscape.org/namespaces/inkscape"
   xmlns:sodipodi="http://sodipodi.sourceforge.net/DTD/sodipodi-0.dtd"
   xmlns="http://www.w3.org/2000/svg"
   xmlns:svg="http://www.w3.org/2000/svg">
  <defs
     id="defs2" />
  <sodipodi:namedview
     id="namedview2"
     pagecolor="#ffffff"
     bordercolor="#000000"
     borderopacity="0.25"
     inkscape:showpageshadow="2"
     inkscape:pageopacity="0.0"
     inkscape:pagecheckerboard="0"
     inkscape:deskcolor="#d1d1d1"
     inkscape:zoom="11.90681"
     inkscape:cx="22.84407"
     inkscape:cy="38.717339"
     inkscape:window-width="1920"
     inkscape:window-height="1043"
     inkscape:window-x="0"
     inkscape:window-y="0"
     inkscape:window-maximized="1"
     inkscape:current-layer="svg2"
     showguides="true"
     inkscape:export-bgcolor="#ffffff00">
    <sodipodi:guide
       position="-7.2227576,66.26761"
       orientation="0,-1"
       id="guide4"
       inkscape:locked="false" />
  </sodipodi:namedview>
  <path
     d="m 61.626,23.73955 a 10.98564,10.98564 0 0 1 -3.14787,1.17413 30.51687,30.51687 0 0 1 -4.63836,0.62861 c -0.459,0.01523 -0.9166,0.08238 -1.37628,0.05192 0.16407,-0.02077 0.32814,-0.04569 0.49153,-0.07823 0.22222,-0.06231 0.45068,-0.10107 0.67637,-0.14815 a 20.99576,20.99576 0 0 0 3.92255,-1.13883 10.49066,10.49066 0 0 0 2.51649,-1.42821 5.48858,5.48858 0 0 0 1.91973,-2.65979 5.6059,5.6059 0 0 0 0.21531,-1.7425 13.37073,13.37073 0 0 1 -2.02012,2.23818 14.88992,14.88992 0 0 1 -6.61,3.11117 14.81355,14.81355 0 0 1 -1.88442,0.3413 14.79826,14.79826 0 0 0 1.41712,-0.4846 15.1373,15.1373 0 0 0 4.73945,-2.67849 6.994,6.994 0 0 0 2.02286,-3.10906 6.55375,6.55375 0 0 0 0.23607,-2.41818 4.7048,4.7048 0 0 0 -0.468,-1.75566 19.048,19.048 0 0 1 -0.6826,2.71171 7.37515,7.37515 0 0 1 -2.37383,3.23854 18.368,18.368 0 0 1 -3.7675,2.18559 31.459,31.459 0 0 1 -3.73977,1.40743 9.33719,9.33719 0 0 0 1.404,-1.47389 6.12442,6.12442 0 0 0 1.31813,-2.981 4.29535,4.29535 0 0 0 -0.52822,-2.81071 c -0.03462,0.28868 -0.06023,0.57806 -0.099,0.86606 a 7.35966,7.35966 0 0 1 -0.93182,2.765 11.82,11.82 0 0 1 -3.31817,3.45939 c -1.04052,0.74491 -2.115,1.442 -3.179,2.153 a 46.93561,46.93561 0 0 1 -6.9174,4.09077 22.6193,22.6193 0 0 1 -4.30607,1.37074 3.54521,3.54521 0 0 1 -1.27035,0.09484 11.04833,11.04833 0 0 1 -3.14648,-1.07028 15.12907,15.12907 0 0 1 -3.31193,-2.2908 29.59927,29.59927 0 0 1 -2.48187,-2.64595 8.6803,8.6803 0 0 0 -2.45557,-1.971 32.77645,32.77645 0 0 1 -5.033,-3.06825 10.158,10.158 0 0 1 -3.395,-4.2936 11.81545,11.81545 0 0 1 -0.64453,-2.9014 2.772,2.772 0 0 0 -0.36276,0.75321 5.49657,5.49657 0 0 0 -0.14953,2.58156 6.60757,6.60757 0 0 0 1.17484,2.59823 9.71376,9.71376 0 0 0 1.98549,2.043 2.3311,2.3311 0 0 1 -0.4306,-0.13846 A 22.82535,22.82535 0 0 1 7.80438,17.55118 6.82648,6.82648 0 0 1 5.69081,15.02638 14.69971,14.69971 0 0 1 4.68,11.21527 6.00892,6.00892 0 0 0 4.66409,16.26 a 8.11279,8.11279 0 0 0 2.69026,3.14163 19.405,19.405 0 0 0 4.088,2.13988 19.07876,19.07876 0 0 1 -3.026,-0.87437 13.7291,13.7291 0 0 1 -5.42827,-3.49192 13.77555,13.77555 0 0 1 -0.8806,-1.09245 4.78021,4.78021 0 0 0 0.60438,2.54142 7.20866,7.20866 0 0 0 3.09524,2.71932 23.22173,23.22173 0 0 0 4.72834,1.68849 c -0.3593,-0.036 -0.72137,-0.04362 -1.0786,-0.099 a 28.18983,28.18983 0 0 1 -5.32927,-1.0689 7.16792,7.16792 0 0 1 -2.421,-1.395 3.75828,3.75828 0 0 0 0.91313,1.71619 6.7488,6.7488 0 0 0 3.19494,1.719 36.37481,36.37481 0 0 0 4.86267,0.81067 26.49354,26.49354 0 0 1 -6.763,-0.19038 4.63671,4.63671 0 0 0 2.48052,1.71692 12.74734,12.74734 0 0 0 3.48777,0.3275 c 0.61753,0.01177 1.233,-0.07477 1.84981,-0.03324 -0.64383,0.15024 -1.29251,0.288 -1.92319,0.49084 a 7.90848,7.90848 0 0 0 -2.55595,1.17206 7.484,7.484 0 0 0 1.19559,0.90828 1.801,1.801 0 0 0 0.87922,0.37384 c 0.8266,-0.06161 1.63035,-0.2783 2.44587,-0.4133 a 14.469,14.469 0 0 0 -2.33926,1.03222 3.77706,3.77706 0 0 0 2.63072,1.40258 4.4726,4.4726 0 0 0 2.31159,1.41778 c 0.15092,0.04707 0.333,0.054 0.43683,0.19107 a 3.95579,3.95579 0 0 0 2.1475,1.24682 c 0.15369,0.04016 0.34615,0.018 0.44652,0.16892 a 3.86619,3.86619 0 0 0 1.92251,1.26067 c 0.13015,0.018 0.18276,0.14746 0.2513,0.2423 a 2.34453,2.34453 0 0 0 1.77158,1.13121 1.92407,1.92407 0 0 0 0.44514,0.59537 1.47867,1.47867 0 0 0 1.01352,0.29215 1.82182,1.82182 0 0 0 0.38838,0.52268 1.35216,1.35216 0 0 0 0.96644,0.23884 1.22326,1.22326 0 0 0 0.67914,0.74491 c -0.18415,0.47215 -0.41884,0.92352 -0.64729,1.37559 -0.10523,0.1883 -0.18554,0.41538 -0.39946,0.50745 q -4.28772,2.39776 -8.635,4.68752 c 0.783,0.2243 1.56182,0.46661 2.34549,0.69022 0.10316,0.02215 0.22223,0.08584 0.32123,0.01384 0.78506,-0.486 1.59158,-0.93667 2.37041,-1.43235 -0.23192,0.4043 -0.52753,0.76775 -0.75667,1.17413 a 9.26366,9.26366 0 0 0 -1.2579,3.0807 7.69443,7.69443 0 0 0 3.34585,-1.5161 11.78761,11.78761 0 0 0 -0.88821,3.45524 9.08884,9.08884 0 0 0 3.00247,-2.39395 10.3264,10.3264 0 0 0 -0.08584,3.58746 4.24221,4.24221 0 0 0 0.46384,-0.39876 11.8808,11.8808 0 0 0 2.0928,-2.91248 7.97047,7.97047 0 0 0 1.02529,2.87649 11.36658,11.36658 0 0 0 1.76881,-3.438 4.91433,4.91433 0 0 0 1.602,2.13365 6.48549,6.48549 0 0 0 0.93528,-2.86056 6.61241,6.61241 0 0 0 0.51992,0.64938 2.024,2.024 0 0 0 0.90067,0.64521 1.0774,1.0774 0 0 0 0.54068,-0.66183 5.35,5.35 0 0 0 0.324,-1.55351 1.66974,1.66974 0 0 0 1.14159,0.15992 c 0.15715,-0.04015 0.19453,-0.21807 0.22223,-0.35376 A 4.09267,4.09267 0 0 0 34.92428,45.31485 2.54391,2.54391 0 0 0 36.466,45.488 c 0.19108,-0.04154 0.38077,-0.24715 0.26793,-0.44653 a 7.1918,7.1918 0 0 0 -0.972,-1.37974 c -0.85844,-0.98444 -1.775,-1.91558 -2.6861,-2.85156 a 39.16811,39.16811 0 0 1 3.35555,-3.02048 5.6574,5.6574 0 0 1 2.02981,-0.9339 2.94273,2.94273 0 0 0 0.48668,-0.13984 0.75042,0.75042 0 0 0 0.2693,-0.43684 1.7354,1.7354 0 0 1 1.18936,0.72483 1.4962,1.4962 0 0 1 -0.01938,1.15752 2.36006,2.36006 0 0 0 0.89167,-0.92283 1.79924,1.79924 0 0 0 0.04777,-1.49743 c -0.11838,-0.27762 -0.37176,-0.46453 -0.513,-0.72761 -0.09692,-0.18345 -0.16822,-0.37937 -0.26861,-0.56075 a 3.0469,3.0469 0 0 0 -1.89273,-1.3569 11.17836,11.17836 0 0 0 -3.01286,-0.234 2.664,2.664 0 0 1 -1.68643,-0.62584 c -0.59952,-0.46245 -0.99829,-1.17066 -1.71758,-1.4732 a 9.00966,9.00966 0 0 1 1.46559,0.018 17.29558,17.29558 0 0 1 3.50923,0.55453 6.32,6.32 0 0 1 2.936,1.50782 2.87184,2.87184 0 0 1 0.85083,1.94672 0.59269,0.59269 0 0 0 0.79683,0.52407 1.81742,1.81742 0 0 0 1.02944,-1.152 2.217,2.217 0 0 0 1.74319,0.6383 1.82758,1.82758 0 0 0 1.16929,-0.5843 4.89779,4.89779 0 0 1 -1.4379,-1.62412 6.004,6.004 0 0 0 2.20634,1.16652 2.96429,2.96429 0 0 0 2.17311,-0.78506 22.19372,22.19372 0 0 1 -3.35416,-2.83287 c 0.33992,0.18553 0.63622,0.43615 0.96506,0.639 0.46383,0.3046 0.9519,0.56837 1.43443,0.84113 a 5.84287,5.84287 0 0 0 1.8415,0.69853 3.46478,3.46478 0 0 0 2.268,-0.43546 11.115,11.115 0 0 1 -2.01388,-1.53481 7.7344,7.7344 0 0 0 2.91316,0.64383 3.80458,3.80458 0 0 0 1.99381,-0.62444 c -1.24959,-0.50884 -2.52549,-0.96437 -3.728,-1.5812 0.21323,0.03946 0.42576,0.08238 0.63622,0.13845 a 18.63909,18.63909 0 0 0 2.42095,0.45346 8.25736,8.25736 0 0 0 1.87611,0.04223 4.82628,4.82628 0 0 0 3.00525,-1.39844 29.03277,29.03277 0 0 1 -7.06762,-0.79821 33.69817,33.69817 0 0 0 5.37358,-0.53307 9.7775,9.7775 0 0 0 3.41647,-1.29666 3.928,3.928 0 0 0 1.63519,-2.09835 c -0.22709,0.14121 -0.43477,0.3115 -0.6674,0.44305 z M 40.38852,35.008 a 1.66735,1.66735 0 0 1 -0.79406,0.11076 c -0.38214,-0.22361 -0.3503,-0.73314 -0.37661,-1.11667 a 1.46283,1.46283 0 0 1 1.17067,1.00591 z"
     id="path1" />
  <path
     style="font-weight:bold;font-size:11.3336px;font-family:'Bai Jamjuree';-inkscape-font-specification:'Bai Jamjuree Bold';fill:#01b77e;stroke-width:0.944464;fill-opacity:1"
     d="m 18.858696,19.386909 q -0.498678,0 -0.804686,-0.28334 -0.294673,-0.294673 -0.294673,-0.770684 v -6.879496 h 1.564037 v 6.573488 h 4.306768 v 1.360032 z m 10.211566,-1.847376 h -2.969403 l -0.702683,1.847376 h -1.632039 l 3.105407,-7.93352 h 0.702683 q 0.736684,0 0.997357,0.680016 l 2.822066,7.253504 h -1.632038 z m -2.55006,-1.314698 h 2.130717 l -1.054025,-2.856067 h -0.01133 z m 6.652815,3.162074 q -0.487345,0 -0.793352,-0.294673 -0.306008,-0.294674 -0.306008,-0.770685 v -6.868162 h 3.944093 q 1.076692,0 1.722707,0.510012 0.657349,0.510012 0.657349,1.371366 v 0.56668 q 0,0.374009 -0.192671,0.714017 -0.181338,0.340008 -0.521346,0.555346 v 0.01133 q 0.544013,0.192671 0.872688,0.623348 0.340008,0.430677 0.340008,0.963356 v 0.589347 q 0,0.929355 -0.680016,1.484702 -0.668683,0.544012 -1.813376,0.544012 z m 2.844733,-4.646776 q 0.362675,0 0.589347,-0.226672 0.226672,-0.238005 0.226672,-0.623348 v -0.385342 q 0,-0.317341 -0.238005,-0.498678 -0.238006,-0.192672 -0.634682,-0.192672 h -2.323388 v 1.926712 z m 0.272007,3.286744 q 0.498678,0 0.770684,-0.192671 0.272007,-0.204005 0.272007,-0.56668 v -0.498678 q 0,-0.328675 -0.238006,-0.532679 -0.238005,-0.204005 -0.634681,-0.204005 h -2.822067 v 1.994713 z m 5.984146,1.450701 q -1.246696,0 -1.949379,-0.691349 -0.702684,-0.702684 -0.702684,-1.94938 h 1.54137 q 0,0.589348 0.294674,0.929356 0.306007,0.328674 0.838686,0.328674 h 1.25803 q 0.498678,0 0.804685,-0.204005 0.317341,-0.215338 0.317341,-0.56668 v -0.385342 q 0,-0.555347 -0.816019,-0.69135 L 41.775224,15.896161 Q 40.7552,15.726157 40.222521,15.250145 39.701176,14.762801 39.701176,14.014783 v -0.634682 q 0,-0.60068 0.31734,-1.054024 0.328675,-0.464678 0.918022,-0.714017 0.600681,-0.249339 1.382699,-0.249339 h 1.280697 q 0.736684,0 1.303364,0.306007 0.56668,0.306007 0.872687,0.861353 0.317341,0.544013 0.317341,1.269364 h -1.54137 q 0,-0.476012 -0.260672,-0.759352 -0.260673,-0.294673 -0.69135,-0.294673 h -1.280697 q -0.476011,0 -0.770685,0.204005 -0.28334,0.204004 -0.28334,0.544012 v 0.306008 q 0,0.56668 0.782019,0.702683 l 2.074049,0.362675 q 1.031357,0.181338 1.57537,0.646015 0.544013,0.453344 0.544013,1.178695 v 0.748017 q 0,0.600681 -0.340008,1.065359 -0.328675,0.464677 -0.929355,0.72535 -0.600681,0.249339 -1.394033,0.249339 z"
     id="text2"
     aria-label="LABS" />
</svg>
