<svg xmlns:xlink="http://www.w3.org/1999/xlink" xmlns="http://www.w3.org/2000/svg" xmlns:svg="http://www.w3.org/2000/svg" width="1200" zoomAndPan="magnify" viewBox="0 0 1200 1200" height="1200" preserveAspectRatio="xMidYMid" version="1.2" id="svg287" xml:space="preserve"><defs id="defs259"><linearGradient xlink:href="#linearGradient289" id="linearGradient290" x1="465.61389" y1="134.98862" x2="465.61389" y2="788.23206" gradientUnits="userSpaceOnUse" gradientTransform="matrix(5.7806541,0,0,1.3024911,-19.289555,-0.64299359)"/><linearGradient id="linearGradient289"><stop style="stop-color:#71fdbf;stop-opacity:1;" offset="0" id="stop289"/><stop style="stop-color:#fed273;stop-opacity:1;" offset="1" id="stop290"/></linearGradient><linearGradient xlink:href="#linearGradient289" id="linearGradient260" gradientUnits="userSpaceOnUse" gradientTransform="matrix(1.3067711,0,0,1.306384,-10.329223,-2.5350956)" x1="465.61389" y1="134.98862" x2="465.61389" y2="788.23206"/><linearGradient xlink:href="#linearGradient289" id="linearGradient4" gradientUnits="userSpaceOnUse" gradientTransform="matrix(1.3008416,0,0,1.3024813,-4.3407579,-0.64298926)" x1="465.61389" y1="134.98862" x2="465.61389" y2="788.23206"/></defs><path id="background-gradient-small" style="display:inline;opacity:1;vector-effect:none;fill:url(#linearGradient4);stroke-width:0.976251;stop-color:#000000;stop-opacity:1" d="M 68.844872,0 H 1131.1552 C 1169.2953,0 1200,30.573305 1200,68.550014 V 1131.4499 c 0,37.9768 -30.7047,68.5501 -68.8448,68.5501 H 68.844872 C 30.704842,1200 5.29e-5,1169.4267 5.29e-5,1131.4499 V 68.550014 C 5.29e-5,30.573305 30.704842,0 68.844872,0 Z"/><path id="background-logo-circle" style="display:inline;fill:url(#linearGradient260);stroke-width:0.979934" d="M 1024.9418,600.50532 A 426.81983,426.69336 0 0 1 598.12154,1027.198 426.81983,426.69336 0 0 1 171.30171,600.50532 426.81983,426.69336 0 0 1 598.12154,173.81196 426.81983,426.69336 0 0 1 1024.9418,600.50532 Z"/><path style="fill:#000000;stroke-width:0.990318" d="m 1100.3369,281.05176 c -6.0446,14.82425 -23.6552,27.58777 -58.8155,42.62732 -6.4778,2.77083 -14.7513,6.13049 -18.3856,7.4659 -3.6342,1.3354 -7.8625,3.0043 -9.3963,3.70867 -4.1431,1.90281 6.4077,-0.0296 27.2799,-4.99645 25.7559,-6.12899 54.6597,-11.79617 57.4749,-11.26917 8.2554,1.54536 -1.6376,14.37879 -17.8928,23.21109 -9.9925,5.42945 -17.0085,8.3097 -34.8552,14.3092 -13.0726,4.39456 -20.854,7.62586 -19.9223,8.273 0.2606,0.18102 8.5092,-0.14661 18.3303,-0.72804 18.8985,-1.11889 23.6366,-0.73846 25.8656,2.07682 1.08,1.36407 1.0607,2.34004 -0.089,4.50307 -2.5756,4.84603 -14.598,13.21765 -26.0925,18.1692 -5.8182,2.50629 -10.8137,5.09865 -11.1011,5.76079 -0.2875,0.6621 -0.3585,2.15423 -0.1578,3.31583 0.7224,4.17954 -12.2973,17.12883 -25.5514,25.41372 -3.6192,2.26225 -3.72,2.48489 -2.5355,5.59741 0.9365,2.46079 0.8681,4.01656 -0.2845,6.4599 -2.1823,4.62596 -17.09126,15.72508 -26.05142,19.39437 -1.71694,0.70312 -2.62054,1.89229 -2.73661,3.60177 -0.26688,3.92767 -5.246,8.99416 -14.43868,14.69193 -8.2088,5.08792 -8.37404,5.2667 -8.70289,9.41572 -0.18436,2.32612 -1.19869,5.09846 -2.25405,6.16076 -3.23234,3.25359 -15.61018,10.78264 -18.61687,11.32405 -2.45184,0.4415 -2.89945,1.05332 -3.2904,4.49746 -0.53842,4.74309 -0.96379,5.24648 -8.00899,9.4776 -2.99705,1.79992 -7.03814,4.40777 -8.98019,5.79519 -2.5476,1.82004 -3.92966,2.29728 -4.96253,1.71358 -1.09524,-0.619 -1.69041,0.31244 -2.53377,3.96471 -1.13668,4.92294 -3.63712,8.10974 -7.53168,9.5991 -7.20215,2.75427 -7.13783,2.68428 -8.22401,8.95217 -0.57744,3.33217 -1.51432,6.59043 -2.08197,7.24054 -0.56763,0.65013 -4.01266,2.0446 -7.65557,3.09883 -7.82129,2.26335 -9.10705,2.9438 -8.79868,4.65634 0.12685,0.70549 -0.66173,2.83641 -1.75282,4.73535 -1.7431,3.03375 -2.59416,3.56267 -7.01468,4.35956 -5.00248,0.90178 -5.04107,0.9364 -6.83859,6.12118 -2.27778,6.57018 -3.34644,7.81592 -7.86415,9.16721 -6.10324,1.82556 -7.86039,2.82997 -7.58885,4.33793 0.14293,0.79376 -0.45953,2.4782 -1.33879,3.74321 -0.87928,1.265 -1.53448,2.6565 -1.45604,3.09219 0.38299,2.12691 -4.8552,7.41822 -8.13385,8.2163 -2.7412,0.66725 -4.39209,2.0991 -7.64862,6.63376 -3.05536,4.25456 -5.11691,6.10962 -7.8006,7.01927 -2.5719,0.87175 -4.80732,2.79134 -7.57958,6.50872 -2.16252,2.89978 -4.55952,5.15284 -5.32663,5.00678 -0.76713,-0.14606 -3.31752,2.39496 -5.66757,5.64672 -4.65,6.43417 -8.95958,9.79722 -12.22915,9.54318 -1.34914,-0.10495 -3.36636,1.16706 -5.70082,3.59446 -1.98706,2.06617 -4.53381,3.92368 -5.65944,4.12778 -1.12572,0.2037 -4.38958,2.45001 -7.2532,4.99088 -2.86364,2.54088 -6.31892,4.74766 -7.67842,4.90398 -1.4393,0.16548 -4.21844,2.06846 -6.65329,4.55574 -2.29982,2.34939 -4.87976,4.39732 -5.73322,4.55099 -0.85346,0.15368 -3.01065,1.70788 -4.79378,3.45379 -4.74267,4.64362 -8.94701,7.17152 -10.33001,6.2109 -0.76928,-0.53432 -2.5861,0.32821 -5.46779,2.59584 -2.37363,1.86784 -5.19129,3.32804 -6.26145,3.24488 -1.96103,-0.15235 -6.3735,2.66702 -8.67986,5.54606 -1.04329,1.3023 -2.01219,1.36645 -5.94261,0.39346 -2.58286,-0.63936 -5.54767,-0.77812 -6.5885,-0.30835 -1.0408,0.46979 -2.55163,0.59445 -3.35738,0.27706 -2.64697,-1.04277 -4.65082,0.83442 -5.99653,5.61864 -1.30619,4.64313 -1.39146,4.71988 -5.9875,5.38804 -12.32775,1.79221 -9.13237,2.19372 -10.91602,3.24388 -3.02404,1.78047 -2.07796,1.39624 -2.67849,3.15635 -1.31482,3.85388 -1.1401,7.2232 0.72288,6.50978 0.10228,-0.0393 0.55124,0.28026 0.51083,0.34321 -0.74779,1.16516 6.39201,8.95912 8.93612,9.93504 0.79661,0.30558 1.28818,0.96192 1.09238,1.45854 -0.19581,0.4966 0.37445,1.04201 1.26727,1.21199 0.89279,0.16996 1.44291,0.76648 1.22247,1.32559 -0.22044,0.55906 0.71891,1.53367 2.08743,2.1658 1.3685,0.63209 2.37458,1.42332 2.23573,1.75826 -0.29709,0.71657 11.64377,12.57902 12.56542,12.27814 0.19393,-0.0633 1.82639,0.82113 1.80854,0.89275 0.2504,1.35158 0.84687,2.74819 5.45477,7.4389 3.40277,3.4639 6.61285,6.22132 7.13353,6.12755 0.52066,-0.0939 0.77871,0.25556 0.57342,0.77626 -0.20531,0.52068 0.87157,1.88344 2.39308,3.02826 1.5215,1.14486 2.64974,2.24936 2.50717,2.45447 -0.42003,0.6043 31.28225,33.24295 33.19579,34.17622 0.50695,0.24728 0.88407,0.63211 0.83803,0.8552 -0.0459,0.22309 0.58251,1.51297 1.39671,2.86639 0.81422,1.3534 2.1587,4.57777 2.98777,7.16522 1.24882,3.89742 1.2439,5.4638 -0.0287,9.13109 -1.47561,4.25228 -2.5094,5.14607 -7.76313,6.71177 -1.33966,0.39924 -2.29311,1.35702 -2.17196,2.18187 0.38321,2.6094 -1.99747,9.52627 -3.86594,11.23222 -1.12766,1.0296 -3.95527,1.91901 -7.46331,2.34755 l -5.6478,0.68994 -1.12272,4.61904 c -1.20374,4.95245 -3.59998,6.82128 -8.67691,6.76713 -2.19696,-0.0232 -3.18792,0.73369 -5.07066,3.87411 -1.94118,3.23786 -3.14428,4.12441 -7.05765,5.20066 -3.46628,0.95331 -5.25739,0.96108 -6.75273,0.0294 -1.22535,-0.76352 -2.98423,-0.90334 -4.42021,-0.35136 -1.31176,0.50423 -3.25816,0.47219 -4.32533,-0.0712 -2.55657,-1.3018 -5.5438,-0.74065 -8.60146,1.61582 -1.36744,1.05383 -4.37751,2.21759 -6.68906,2.58611 -2.31155,0.36851 -4.67182,1.22237 -5.24504,1.89742 -0.57319,0.6751 -2.63395,1.65556 -4.57945,2.17884 -3.11673,0.83832 -3.97344,0.56814 -7.20584,-2.27251 -4.50997,-3.96334 -7.57628,-9.89921 -10.94494,-21.18752 -3.12002,-10.455 -5.19998,-16.38143 -12.63988,-36.01465 -6.52802,-17.22683 -9.94238,-24.6736 -18.10968,-39.49749 -3.18958,-5.78912 -6.80957,-13.58994 -8.04447,-17.33516 -1.2349,-3.74522 -2.94398,-7.81815 -3.79796,-9.05099 l -1.55267,-2.24149 -1.79798,3.12927 c -2.23445,3.88888 -8.95166,7.41188 -12.1548,6.37486 -4.0154,-1.30002 -7.65416,0.0742 -10.12525,3.82393 -3.52681,5.35175 -4.82368,6.07373 -9.18042,5.11088 -5.52963,-1.22205 -7.15529,-0.63894 -7.91344,2.83857 -0.43105,1.97704 -1.85351,3.80694 -4.00458,5.15152 -1.83488,1.14691 -3.75803,3.38731 -4.27373,4.97868 -1.01048,3.11826 -3.69455,5.17714 -7.68626,5.89589 -1.42035,0.25577 -3.29364,1.68241 -4.32533,3.29406 -1.55087,2.42266 -2.68283,2.99828 -7.6577,3.89408 -3.21081,0.57816 -6.02442,1.5244 -6.25246,2.10277 -0.22804,0.57835 -2.57449,1.74344 -5.21431,2.58901 -3.72132,1.19205 -4.93703,2.0765 -5.41095,3.93649 -0.74904,2.93963 -2.59696,3.85859 -8.54974,4.25178 -3.61811,0.23896 -4.79239,0.70999 -5.52651,2.21676 -0.80663,1.65553 -3.21275,2.38132 -17.85871,5.38681 -18.69463,3.8363 -23.169,5.13489 -22.89701,6.64536 0.12057,0.66991 -2.26915,1.22175 -7.04956,1.62787 -5.98423,0.50842 -7.40679,0.92335 -8.24471,2.40485 -1.17112,2.07063 -5.41724,3.03489 -11.05752,2.51107 -3.46682,-0.32198 -4.16253,-0.074 -5.73521,2.0444 -0.98437,1.32596 -2.95894,2.62135 -4.38792,2.87864 -4.00938,0.72197 -10.95804,-1.03172 -11.30352,-2.85273 -0.24047,-1.26716 -0.42684,-1.29269 -0.90301,-0.12365 -0.36959,0.90745 -1.41901,1.36701 -2.73237,1.19652 -1.58666,-0.20592 -2.43452,0.43435 -3.31346,2.50115 -1.42131,3.34277 -3.21704,3.79079 -7.91202,1.974 -4.22606,-1.63534 -7.34131,-1.26364 -7.75865,0.92574 -0.68056,3.57016 -3.3967,4.31022 -9.89391,2.69573 l -6.23681,-1.54976 -2.51843,2.57643 c -3.15145,3.22398 -6.07868,3.7792 -10.87055,2.06183 -8.2548,-2.95848 -8.10939,-2.95943 -12.28817,0.08 -4.98569,3.62647 -5.89219,3.75219 -11.97271,1.66018 l -5.02668,-1.72941 -1.82661,2.46042 c -1.00462,1.35323 -2.34489,2.55373 -2.97837,2.6678 -0.6335,0.11403 -3.65233,1.61011 -6.70853,3.32454 l -5.55674,3.11717 -2.97656,-1.83214 c -1.63712,-1.00765 -3.70335,-2.29218 -4.59162,-2.8545 -1.33964,-0.84806 -1.90977,-0.6355 -3.3434,1.24655 -1.97112,2.5877 -9.53369,5.90665 -16.18993,7.10523 -3.2238,0.58048 -5.23695,0.34797 -7.02196,-0.811 l -2.50247,-1.62479 -5.76349,3.1132 c -3.16994,1.71225 -8.29123,3.56836 -11.38068,4.12467 -5.13106,0.92393 -5.87059,0.78538 -8.54541,-1.6008 -2.73233,-2.43749 -3.13625,-2.50354 -6.03761,-0.98746 -3.2306,1.6881 -9.85145,3.41305 -16.83859,4.38703 -3.25864,0.45422 -4.85814,-0.005 -8.09932,-2.32731 -3.27942,-2.34932 -4.34853,-2.64988 -5.68629,-1.59857 -2.86649,2.25275 -16.13203,6.43237 -21.431,6.75232 -6.77427,0.40904 -10.12336,-1.07777 -10.792,-4.79102 -0.64697,-3.59303 -1.32176,-3.5032 -11.70021,1.55763 -4.37384,2.13282 -9.42001,4.53068 -11.21368,5.32854 -4.15891,1.85001 -15.60852,2.55151 -17.71901,1.08561 -2.57615,-1.78936 -0.28796,-7.99654 5.19691,-14.09773 6.2316,-6.93183 12.97201,-16.97181 11.17075,-16.63908 -1.98411,0.36633 -6.33352,4.65767 -5.38716,5.31499 0.42686,0.29648 -0.0546,0.68866 -1.06978,0.87146 -1.01525,0.18281 -6.37196,4.3263 -11.90377,9.20776 -11.65612,10.28578 -24.79589,18.25983 -34.24308,20.78088 -8.38933,2.23877 -12.46968,1.84998 -13.0263,-1.24121 -0.34129,-1.89536 2.5761,-5.3531 16.17336,-19.1687 22.37171,-22.73091 42.41512,-44.16921 47.53655,-50.84472 3.33303,-4.34439 3.80121,-5.42723 2.24074,-5.18237 -1.08497,0.17024 -3.74004,1.77336 -5.9002,3.56242 -10.3321,8.55721 -35.85218,26.10771 -45.43356,31.24524 -2.65013,1.42101 -4.74115,3.0128 -4.6467,3.53732 0.0945,0.52452 -0.25118,0.78706 -0.76805,0.58346 -0.51688,-0.20362 -4.20979,0.88737 -8.20645,2.4244 -10.670407,4.10363 -21.787902,5.80333 -29.916703,4.57382 -7.501208,-1.1346 -9.209486,-2.97806 -5.773806,-6.23075 1.182313,-1.11934 10.119644,-6.81654 19.860735,-12.66047 28.378544,-17.025 43.395584,-27.61106 69.767624,-49.18191 10.68261,-8.73776 13.18002,-11.21784 12.07149,-11.9878 -0.92343,-0.64138 -7.66741,2.9764 -14.80128,7.94012 -2.46529,1.71533 -7.38101,4.62672 -10.92382,6.46974 -3.5428,1.84301 -7.25242,3.87755 -8.24358,4.52115 -2.83323,1.83976 -30.96849,12.42714 -41.000667,15.42868 -14.313229,4.28237 -31.036539,4.77311 -42.792047,1.2557 -6.121898,-1.83175 -13.269942,-7.02433 -12.061991,-8.76223 0.436518,-0.62801 6.964654,-2.89656 14.506969,-5.04121 7.542316,-2.14466 17.986553,-5.34576 23.209418,-7.1136 5.222865,-1.76779 12.490313,-4.19162 16.149883,-5.38624 3.659568,-1.19463 10.879005,-3.858 16.043215,-5.9186 5.16422,-2.06058 11.50398,-4.54999 14.08835,-5.53198 2.58438,-0.982 5.72218,-2.41955 6.97286,-3.1945 1.2507,-0.77498 5.83631,-3.00417 10.1902,-4.95376 7.89047,-3.53319 31.45346,-16.19264 33.95254,-18.24135 2.09229,-1.71523 -1.70666,-0.7863 -8.19371,2.00356 -9.14751,3.93402 -41.55138,11.40308 -53.29555,12.28456 -11.18093,0.8392 -16.714197,0.26474 -27.136981,-2.81734 -7.493386,-2.21585 -13.962321,-6.56435 -12.625799,-8.48724 0.427199,-0.61461 3.120014,-1.52109 5.984035,-2.01439 10.409698,-1.79304 58.841965,-13.45257 79.419635,-19.11947 35.32317,-9.72765 53.37974,-16.10362 70.15733,-24.77333 11.87955,-6.13868 35.30855,-15.36537 42.14048,-16.59555 3.74066,-0.67356 8.57555,-2.74988 15.74877,-6.76328 10.53625,-5.89496 36.37655,-16.70782 42.61053,-17.83034 1.8895,-0.34023 6.87697,-1.75748 11.08325,-3.14946 6.67383,-2.20855 9.18352,-2.54364 19.70667,-2.63114 15.50008,-0.12885 16.95881,-0.29675 41.9042,-4.82188 21.86966,-3.96725 28.03054,-5.78557 53.51494,-15.79455 11.81245,-4.63933 30.81345,-14.50404 31.13922,-16.16645 0.0961,-0.4907 1.01561,-1.04357 2.04321,-1.2286 1.0276,-0.18504 1.80182,-0.70601 1.72048,-1.1577 -0.0813,-0.45173 1.6828,-2.22184 3.92033,-3.93363 4.24434,-3.24712 13.47737,-16.67904 15.32117,-22.28879 0.73119,-2.2247 0.63259,-5.70484 -0.31307,-11.0478 -1.15012,-6.49792 -1.98891,-8.64756 -5.02478,-12.87665 -8.3648,-11.65256 -10.72835,-19.48321 -8.27808,-27.42604 1.1186,-3.62598 0.57736,-8.71573 -1.52899,-14.37876 -1.17134,-3.14925 -1.12363,-4.1413 0.28707,-5.96935 1.49048,-1.93146 2.07958,-2.10798 4.94918,-1.48304 1.79151,0.39013 3.83317,1.66659 4.53701,2.83655 1.59464,2.65067 6.77991,4.74301 13.6041,5.48944 7.30222,0.79871 24.30694,8.30578 34.06625,15.0392 8.08175,5.57602 23.30637,12.87717 30.17927,14.47283 6.08331,1.41235 18.10844,1.49955 21.8122,0.15817 3.52067,-1.27509 15.28924,-6.81298 17.8179,-8.3845 0.74671,-0.46408 2.17431,-1.15866 3.17241,-1.54353 7.03092,-2.71104 38.32156,-25.14474 56.33704,-40.39062 7.32442,-6.19841 24.54193,-23.34231 37.33094,-37.17136 9.45829,-10.22747 12.54461,-13.83603 18.33816,-21.44121 4.57267,-6.00252 8.4374,-9.83789 13.23441,-13.13387 3.72662,-2.56053 10.55992,-7.53312 15.18509,-11.0502 17.38033,-13.21629 56.00652,-36.50903 65.42975,-39.45605 2.16604,-0.67742 7.16469,-3.80438 11.10808,-6.94882 11.2488,-8.96971 35.69404,-24.59377 55.90875,-35.73382 28.11677,-15.49473 46.94561,-28.70415 77.91711,-54.66293 13.24616,-11.1023 28.78609,-25.73984 30.45049,-28.68279 3.26952,-5.78062 5.85092,1.34723 4.05762,11.20367 -1.2401,6.8156 -7.36472,16.99382 -14.06046,23.36721 -6.44118,6.13105 -19.13073,17.13544 -26.34419,22.84579 -3.3913,2.6846 -5.68175,4.80581 -5.08993,4.71381 3.76299,-0.58503 44.38038,-22.40249 58.18038,-31.25154 11.1002,-7.11779 30.5379,-22.03357 38.1657,-29.28689 3.6214,-3.4436 7.0613,-6.34698 7.6444,-6.45196 1.6047,-0.28897 2.6777,7.54865 1.8242,13.32589 -2.2483,15.22018 -12.0248,26.39045 -37.8455,43.24085 -11.7511,7.66868 -23.6087,14.03291 -36.04206,19.34422 -5.77041,2.46512 -10.83468,4.96668 -11.25388,5.55907 -1.06667,1.50743 0.2352,1.18873 16.94922,-4.14959 28.17002,-8.99717 51.24332,-17.86858 81.76292,-31.43673 17.2767,-7.68075 22.5894,-9.54496 24.3749,-8.55308 1.9245,1.06905 1.9063,1.44523 -0.3372,6.94738 z" id="pandion-bird"/><path id="circle261-2" style="display:inline;fill:none;stroke:#000000;stroke-width:10.0399;stroke-linecap:round" d="M 174.39037,570.83877 A 426.69678,426.69678 0 0 1 629.48661,174.82384 426.69678,426.69678 0 0 1 1025.7517,629.70263 426.69678,426.69678 0 0 1 571.09007,1026.2163 426.69678,426.69678 0 0 1 174.32626,571.77343"/></svg>