<svg xmlns:xlink="http://www.w3.org/1999/xlink" xmlns="http://www.w3.org/2000/svg" xmlns:svg="http://www.w3.org/2000/svg" width="1191.1383" zoomAndPan="magnify" viewBox="0 0 884.65929 899.57255" height="1196.353" preserveAspectRatio="xMidYMid" version="1.2" id="svg287" xml:space="preserve"><defs id="defs259"><linearGradient xlink:href="#linearGradient289" id="linearGradient290" x1="465.61389" y1="134.98862" x2="465.61389" y2="788.23206" gradientUnits="userSpaceOnUse" gradientTransform="matrix(4.3187029,0,0,0.97514048,-26.914481,0.28817005)"/><linearGradient id="linearGradient289"><stop style="stop-color:#71fdbf;stop-opacity:1;" offset="0" id="stop289"/><stop style="stop-color:#fed273;stop-opacity:1;" offset="1" id="stop290"/></linearGradient><linearGradient xlink:href="#linearGradient289" id="linearGradient260" gradientUnits="userSpaceOnUse" gradientTransform="matrix(0.98308931,0,0,0.97601224,-38.892774,-0.11383846)" x1="465.61389" y1="134.98862" x2="465.61389" y2="788.23206"/><linearGradient xlink:href="#linearGradient289" id="linearGradient4" gradientUnits="userSpaceOnUse" gradientTransform="matrix(0.97061577,0,0,0.97601864,-10.698952,-0.11683162)" x1="465.61389" y1="134.98862" x2="465.61389" y2="788.23206"/></defs><g id="editable-text" transform="matrix(3.6232624,0,0,3.6232624,-2638.9228,-440.25504)"><text xml:space="preserve" style="font-style:normal;font-variant:normal;font-weight:bold;font-stretch:normal;font-size:81.516px;line-height:17.6055px;font-family:Poppins;-inkscape-font-specification:'Poppins, Bold';font-variant-ligatures:normal;font-variant-caps:normal;font-variant-numeric:normal;font-variant-east-asian:normal;text-align:start;letter-spacing:-1.54576px;writing-mode:lr-tb;direction:ltr;text-anchor:start;opacity:1;vector-effect:none;fill:#000000;fill-opacity:1;stroke:none;stroke-width:6.60207;stroke-linecap:round;stroke-linejoin:miter;stroke-miterlimit:4;stroke-dasharray:none;stroke-dashoffset:0;stroke-opacity:1;-inkscape-stroke:none" x="1002.4731" y="230.45575" id="text11" transform="translate(-24.593643)"><tspan id="tspan11" style="font-style:normal;font-variant:normal;font-weight:bold;font-stretch:normal;font-size:81.516px;font-family:Poppins;-inkscape-font-specification:'Poppins, Bold';font-variant-ligatures:normal;font-variant-caps:normal;font-variant-numeric:normal;font-variant-east-asian:normal;letter-spacing:-1.54576px;fill:#000000;fill-opacity:1;stroke:none;stroke-width:6.60207" x="1002.4731" y="230.45575">Pandion</tspan></text><text xml:space="preserve" style="font-style:normal;font-variant:normal;font-weight:bold;font-stretch:normal;font-size:81.516px;line-height:17.6055px;font-family:Poppins;-inkscape-font-specification:'Poppins, Bold';font-variant-ligatures:normal;font-variant-caps:normal;font-variant-numeric:normal;font-variant-east-asian:normal;text-align:start;letter-spacing:-1.72518px;writing-mode:lr-tb;direction:ltr;text-anchor:start;opacity:1;vector-effect:none;fill:#000000;fill-opacity:1;stroke:none;stroke-width:6.60207;stroke-linecap:round;stroke-linejoin:miter;stroke-miterlimit:4;stroke-dasharray:none;stroke-dashoffset:0;stroke-opacity:1;-inkscape-stroke:none" x="1002.5205" y="304.65982" id="text12" transform="translate(-24.593643)"><tspan id="tspan12" style="font-style:normal;font-variant:normal;font-weight:bold;font-stretch:normal;font-size:81.516px;font-family:Poppins;-inkscape-font-specification:'Poppins, Bold';font-variant-ligatures:normal;font-variant-caps:normal;font-variant-numeric:normal;font-variant-east-asian:normal;letter-spacing:-1.72518px;fill:#000000;fill-opacity:1;stroke:none;stroke-width:6.60207" x="1002.5205" y="304.65982">Labs</tspan></text></g><path id="background-gradient-small" style="display:inline;opacity:1;vector-effect:none;fill:url(#linearGradient4);stroke-width:0.729989;stop-color:#000000;stop-opacity:1" d="m 43.9081,0.3649945 h 792.6367 c 28.45797,0 51.36818,22.9102075 51.36818,51.3681795 V 848.22124 c 0,28.45797 -22.91021,51.36818 -51.36818,51.36818 H 43.9081 c -28.457972,0 -51.36818,-22.91021 -51.36818,-51.36818 V 51.733174 c 0,-28.457972 22.910208,-51.3681795 51.36818,-51.3681795 z"/><path id="background-logo-circle" style="display:inline;fill:url(#linearGradient260);stroke-width:0.734659" d="M 739.94562,450.42349 A 321.09833,318.78677 0 0 1 418.84729,769.21027 321.09833,318.78677 0 0 1 97.748962,450.42349 321.09833,318.78677 0 0 1 418.84729,131.63672 321.09833,318.78677 0 0 1 739.94562,450.42349 Z"/><path style="fill:#000000;stroke-width:0.741661" d="m 813.63854,220.38535 c -4.52684,11.10206 -17.71568,20.66082 -44.04767,31.92412 -4.8513,2.07511 -11.04743,4.5912 -13.76914,5.5913 -2.72171,1.0001 -5.88837,2.24996 -7.03701,2.77747 -3.10292,1.42504 4.79881,-0.0222 20.4302,-3.7419 19.28895,-4.59008 40.93531,-8.8343 43.04368,-8.43962 6.18255,1.15734 -1.22642,10.76845 -13.40013,17.38307 -7.48352,4.06618 -12.73786,6.22323 -26.10351,10.71633 -9.79023,3.29114 -15.61776,5.7111 -14.92006,6.19575 0.1952,0.13557 6.37269,-0.1098 13.72779,-0.54524 14.15338,-0.83795 17.70176,-0.55304 19.37109,1.55536 0.80885,1.02157 0.79439,1.75248 -0.0666,3.3724 -1.92888,3.62925 -10.93263,9.89886 -19.54099,13.60714 -4.35727,1.87699 -8.09846,3.81844 -8.31375,4.31432 -0.21529,0.49586 -0.26845,1.61333 -0.11813,2.48327 0.54101,3.13011 -9.20965,12.82799 -19.13589,19.03264 -2.71046,1.69423 -2.78595,1.86097 -1.89884,4.19197 0.70139,1.84292 0.6501,3.00805 -0.21308,4.8379 -1.6343,3.46444 -12.79949,11.7767 -19.50986,14.52468 -1.28584,0.52657 -1.96255,1.41716 -2.04948,2.69741 -0.19987,2.94148 -3.92879,6.73583 -10.8133,11.00296 -6.14767,3.81041 -6.27142,3.9443 -6.5177,7.05155 -0.13807,1.74206 -0.89772,3.8183 -1.68809,4.61387 -2.42074,2.43665 -11.69065,8.07525 -13.9424,8.48072 -1.83621,0.33064 -2.17143,0.78884 -2.46422,3.3682 -0.40323,3.55216 -0.72179,3.92915 -5.99803,7.09789 -2.24453,1.34798 -5.27095,3.30103 -6.72537,4.34009 -1.90793,1.36305 -2.94297,1.72046 -3.7165,1.28332 -0.82024,-0.46358 -1.26597,0.23399 -1.89757,2.96922 -0.85128,3.68685 -2.72389,6.07348 -5.64057,7.18888 -5.39378,2.06271 -5.34561,2.01029 -6.15906,6.70439 -0.43245,2.4955 -1.13409,4.93565 -1.55921,5.42253 -0.42511,0.48689 -3.00513,1.53122 -5.73335,2.32075 -5.85746,1.69505 -6.82038,2.20465 -6.58944,3.48719 0.095,0.52835 -0.49558,2.12422 -1.31271,3.54636 -1.30543,2.27201 -1.9428,2.66813 -5.25338,3.26493 -3.74642,0.67535 -3.77532,0.70128 -5.1215,4.58422 -1.70586,4.92049 -2.50619,5.85344 -5.88956,6.86544 -4.57079,1.36718 -5.88674,2.1194 -5.68338,3.24873 0.10704,0.59445 -0.34415,1.85595 -1.00264,2.80333 -0.6585,0.94738 -1.14919,1.98949 -1.09044,2.31578 0.28682,1.59287 -3.63612,5.5556 -6.09154,6.15329 -2.05292,0.49971 -3.28929,1.57204 -5.72815,4.9681 -2.28819,3.18629 -3.83211,4.57557 -5.84196,5.25682 -1.92613,0.65286 -3.60026,2.09047 -5.67644,4.87446 -1.61954,2.17168 -3.41468,3.85902 -3.98918,3.74964 -0.57451,-0.10939 -2.48453,1.79361 -4.24451,4.22889 -3.48244,4.81863 -6.70994,7.33726 -9.15856,7.14701 -1.01039,-0.0786 -2.52111,0.87402 -4.26941,2.69193 -1.48814,1.54738 -3.39543,2.93849 -4.23843,3.09135 -0.84306,0.15255 -3.28741,1.83484 -5.43201,3.73773 -2.14461,1.90289 -4.73231,3.55558 -5.75046,3.67265 -1.07791,0.12393 -3.15924,1.54909 -4.98273,3.41185 -1.72236,1.75948 -3.65451,3.2932 -4.29368,3.40829 -0.63916,0.11509 -2.25471,1.27905 -3.59012,2.58658 -3.55184,3.47767 -6.70052,5.37084 -7.73627,4.65142 -0.57612,-0.40016 -1.93676,0.2458 -4.09489,1.94406 -1.77764,1.39885 -3.88782,2.49241 -4.68928,2.43013 -1.46864,-0.1141 -4.77319,1.99736 -6.50045,4.15351 -0.78133,0.97531 -1.50695,1.02335 -4.45049,0.29467 -1.93434,-0.47883 -4.15472,-0.58275 -4.93421,-0.23093 -0.77947,0.35183 -1.91095,0.44519 -2.51438,0.20749 -1.98235,-0.78094 -3.48306,0.62491 -4.49088,4.20787 -0.97822,3.4773 -1.04208,3.53478 -4.48411,4.03517 -9.2324,1.34221 -6.83934,1.6429 -8.17514,2.42938 -2.26474,1.33342 -1.55621,1.04566 -2.00595,2.36383 -0.98469,2.88622 -0.85384,5.40954 0.54137,4.87525 0.0766,-0.0294 0.41283,0.20989 0.38257,0.25704 -0.56003,0.8726 4.78705,6.70959 6.69237,7.44047 0.59659,0.22885 0.96473,0.72039 0.81809,1.09232 -0.14664,0.37191 0.28043,0.78037 0.94908,0.90767 0.66862,0.12729 1.08061,0.57403 0.91552,0.99275 -0.16509,0.41869 0.5384,1.14859 1.5633,1.622 1.02489,0.47338 1.77835,1.06594 1.67437,1.31678 -0.2225,0.53665 8.72016,9.42058 9.41039,9.19525 0.14524,-0.0474 1.36781,0.61495 1.35444,0.66859 0.18753,1.01221 0.63423,2.05815 4.08514,5.57108 2.54838,2.59416 4.95245,4.65922 5.34239,4.589 0.38993,-0.0703 0.58319,0.19139 0.42944,0.58135 -0.15376,0.38994 0.65273,1.41053 1.79221,2.2679 1.13947,0.8574 1.98442,1.68457 1.87765,1.83818 -0.31457,0.45257 23.42766,24.89605 24.86073,25.59499 0.37966,0.18519 0.66209,0.47339 0.62761,0.64047 -0.0344,0.16707 0.43625,1.13308 1.04601,2.14667 0.60978,1.01358 1.61668,3.42835 2.23758,5.36612 0.93526,2.91883 0.93157,4.09191 -0.0215,6.83839 -1.1051,3.18458 -1.87932,3.85395 -5.8139,5.02652 -1.00329,0.299 -1.71734,1.01629 -1.62661,1.63403 0.28699,1.95421 -1.49593,7.13434 -2.89525,8.41195 -0.84452,0.77108 -2.96215,1.43717 -5.58936,1.75811 l -4.22971,0.5167 -0.84082,3.45926 c -0.90149,3.70895 -2.69607,5.10854 -6.49824,5.06798 -1.64533,-0.0174 -2.38747,0.54947 -3.79748,2.90137 -1.45377,2.42487 -2.35479,3.08882 -5.28556,3.89484 -2.59594,0.71394 -3.93732,0.71976 -5.0572,0.022 -0.91768,-0.57181 -2.23493,-0.67652 -3.31035,-0.26314 -0.98239,0.37763 -2.44008,0.35363 -3.23929,-0.0533 -1.91465,-0.97493 -4.15182,-0.55468 -6.44174,1.21011 -1.02409,0.78923 -3.27837,1.66078 -5.00952,1.93677 -1.73115,0.27598 -3.49878,0.91545 -3.92807,1.421 -0.42927,0.50559 -1.9726,1.23987 -3.42961,1.63176 -2.33416,0.62783 -2.97576,0.42549 -5.39654,-1.70191 -3.37757,-2.96819 -5.67397,-7.41364 -8.1968,-15.86759 -2.33662,-7.82988 -3.89433,-12.26825 -9.46616,-26.97181 -4.88891,-12.90138 -7.44597,-18.47836 -13.56256,-29.58015 -2.38871,-4.33554 -5.09977,-10.17767 -6.0246,-12.98251 -0.92483,-2.80484 -2.20478,-5.85511 -2.84434,-6.7784 l -1.16281,-1.67868 -1.34653,2.34355 c -1.67341,2.91243 -6.70401,5.55085 -9.10288,4.77421 -3.00718,-0.9736 -5.73229,0.0556 -7.58292,2.86379 -2.64127,4.00799 -3.61251,4.54869 -6.87533,3.8276 -4.14121,-0.91521 -5.35868,-0.47851 -5.92647,2.12584 -0.32282,1.48063 -1.38812,2.85106 -2.99908,3.85803 -1.37416,0.85894 -2.81443,2.5368 -3.20065,3.7286 -0.75676,2.3353 -2.76689,3.87722 -5.75633,4.4155 -1.06372,0.19155 -2.46665,1.25998 -3.23929,2.46696 -1.16147,1.81436 -2.00921,2.24545 -5.73495,2.91633 -2.40461,0.43299 -4.51176,1.14164 -4.68254,1.57479 -0.17078,0.43313 -1.92807,1.30568 -3.90506,1.93894 -2.78694,0.89274 -3.6974,1.55511 -4.05233,2.94808 -0.56096,2.20153 -1.94489,2.88975 -6.403,3.18421 -2.70965,0.17896 -3.58908,0.53172 -4.13887,1.66016 -0.6041,1.23985 -2.40607,1.7834 -13.37461,4.03425 -14.00063,2.87305 -17.35154,3.84558 -17.14785,4.97679 0.0903,0.5017 -1.69939,0.91498 -5.2795,1.21913 -4.48166,0.38076 -5.54703,0.69151 -6.17456,1.80102 -0.87707,1.55072 -4.05704,2.27287 -8.28111,1.88057 -2.59635,-0.24113 -3.11737,-0.0554 -4.29517,1.53108 -0.73721,0.99303 -2.21599,1.96316 -3.28617,2.15585 -3.00267,0.54069 -8.20661,-0.77267 -8.46534,-2.13645 -0.18009,-0.94899 -0.31967,-0.96811 -0.67628,-0.0926 -0.27679,0.6796 -1.06271,1.02377 -2.0463,0.89609 -1.18827,-0.15422 -1.82324,0.32529 -2.48149,1.87314 -1.06444,2.50344 -2.40928,2.83897 -5.92541,1.47835 -3.16495,-1.22472 -5.498,-0.94635 -5.81055,0.6933 -0.50968,2.67374 -2.54383,3.22798 -7.40967,2.01887 l -4.67082,-1.16064 -1.88608,1.92952 c -2.36016,2.41448 -4.5524,2.83029 -8.14109,1.54413 -6.18212,-2.21564 -6.07322,-2.21635 -9.20276,0.0599 -3.73384,2.71591 -4.41273,2.81006 -8.96651,1.24333 l -3.76454,-1.29518 -1.36797,1.84264 c -0.75237,1.01345 -1.75612,1.91252 -2.23054,1.99795 -0.47443,0.0854 -2.73527,1.20583 -5.0241,2.48979 l -4.16151,2.33448 -2.22918,-1.37211 c -1.22606,-0.75464 -2.77348,-1.71664 -3.43872,-2.13777 -1.00327,-0.63512 -1.43025,-0.47593 -2.50391,0.93356 -1.4762,1.93796 -7.1399,4.42356 -12.12484,5.32119 -2.41434,0.43473 -3.92201,0.2606 -5.25883,-0.60737 l -1.87413,-1.21682 -4.31635,2.33151 c -2.374,1.28233 -6.2094,2.67239 -8.52313,3.08902 -3.84271,0.69194 -4.39655,0.58818 -6.39976,-1.19886 -2.04627,-1.82547 -2.34877,-1.87493 -4.52164,-0.73952 -2.41943,1.26424 -7.37787,2.55607 -12.61062,3.2855 -2.44044,0.34017 -3.63832,-0.004 -6.06568,-1.74295 -2.456,-1.75944 -3.25667,-1.98453 -4.25853,-1.19719 -2.14675,1.68711 -12.08148,4.81728 -16.04994,5.05689 -5.07333,0.30634 -7.58151,-0.80715 -8.08226,-3.58805 -0.48452,-2.69086 -0.98988,-2.62359 -8.76243,1.16653 -3.27562,1.59729 -7.05476,3.39308 -8.39806,3.99061 -3.11466,1.38549 -11.689409,1.91085 -13.269979,0.81302 -1.92931,-1.34007 -0.21566,-5.9887 3.892029,-10.55796 4.66692,-5.19133 9.71489,-12.71039 8.36591,-12.46121 -1.48593,0.27435 -4.74325,3.48819 -4.03451,3.98046 0.31968,0.22204 -0.0409,0.51575 -0.80117,0.65265 -0.76034,0.13691 -4.772039,3.24002 -8.914879,6.8958 -8.72942,7.70315 -18.569957,13.67501 -25.645069,15.56306 -6.282875,1.67664 -9.33872,1.38547 -9.755577,-0.92956 -0.255597,-1.41946 1.929292,-4.009 12.112449,-14.35567 16.754447,-17.02346 31.765206,-33.07886 35.600706,-38.07823 2.49615,-3.25357 2.84677,-4.06452 1.67812,-3.88114 -0.81255,0.12749 -2.80096,1.32809 -4.41873,2.66794 -7.737839,6.4086 -26.850147,19.55238 -34.025752,23.39994 -1.984719,1.06421 -3.550708,2.25632 -3.479975,2.64914 0.07074,0.39282 -0.188108,0.58944 -0.575204,0.43696 -0.387094,-0.15249 -3.152762,0.66456 -6.145927,1.81566 -7.991202,3.07326 -16.317229,4.34619 -22.404987,3.42539 -5.617746,-0.84971 -6.897096,-2.2303 -4.324074,-4.66628 0.885449,-0.83829 7.578725,-5.10499 14.873946,-9.48158 21.253064,-12.75023 32.499504,-20.67826 52.249853,-36.83293 8.00034,-6.54382 9.87068,-8.40118 9.04049,-8.97781 -0.69157,-0.48034 -5.74222,2.22906 -11.084859,5.94645 -1.84629,1.28463 -5.52773,3.46501 -8.18099,4.84527 -2.65325,1.38025 -5.43143,2.90394 -6.17372,3.38594 -2.12184,1.37782 -23.192676,9.30684 -30.70592,11.55473 -10.719353,3.20712 -23.243643,3.57464 -32.047486,0.94041 -4.584764,-1.37182 -9.938021,-5.26061 -9.033372,-6.56214 0.326914,-0.47033 5.215914,-2.16927 10.864446,-3.77543 5.648532,-1.60616 13.470348,-4.0035 17.381815,-5.32746 3.911467,-1.32392 9.354147,-3.13915 12.094844,-4.03382 2.740697,-0.89467 8.14744,-2.8893 12.014985,-4.43251 3.867546,-1.54319 8.615466,-3.40754 10.550934,-4.14297 1.935478,-0.73543 4.28541,-1.81203 5.222063,-2.3924 0.936661,-0.58039 4.370881,-2.24986 7.631561,-3.70993 5.90928,-2.64605 23.555889,-12.12686 25.427479,-13.66117 1.56694,-1.28455 -1.27814,-0.58887 -6.13637,1.50049 -6.85068,2.94624 -31.118343,8.53991 -39.913691,9.20006 -8.373559,0.62849 -12.517491,0.19827 -20.323241,-2.10994 -5.611888,-1.65948 -10.456552,-4.91612 -9.455614,-6.3562 0.319934,-0.46029 2.336616,-1.13916 4.481516,-1.5086 7.79595,-1.34283 44.067491,-10.07479 59.47836,-14.3188 26.45395,-7.28516 39.97674,-12.0602 52.54168,-18.55305 8.89674,-4.59733 26.443,-11.50731 31.55952,-12.42861 2.80142,-0.50444 6.42233,-2.05942 11.79444,-5.0651 7.89073,-4.41481 27.24284,-12.51269 31.91155,-13.35336 1.41507,-0.2548 5.15024,-1.3162 8.30038,-2.35867 4.99811,-1.65401 6.87765,-1.90496 14.75856,-1.97049 11.6082,-0.0965 12.70066,-0.22224 31.38257,-3.61117 16.37845,-2.97112 20.99241,-4.33288 40.07799,-11.82873 8.84648,-3.47445 23.07656,-10.86225 23.32054,-12.10725 0.072,-0.36749 0.7606,-0.78154 1.53018,-0.92011 0.76958,-0.13858 1.34941,-0.52874 1.28849,-0.86702 -0.0609,-0.3383 1.26027,-1.66396 2.93598,-2.94594 3.17864,-2.43181 10.09337,-12.49114 11.47421,-16.69235 0.5476,-1.6661 0.47376,-4.27242 -0.23446,-8.27383 -0.86134,-4.86637 -1.48952,-6.47626 -3.76312,-9.64348 -6.2645,-8.72674 -8.03459,-14.59121 -6.19955,-20.53969 0.83773,-2.71554 0.43239,-6.52732 -1.14508,-10.76843 -0.87723,-2.35851 -0.8415,-3.10147 0.21499,-4.47052 1.11624,-1.44649 1.55742,-1.57869 3.7065,-1.11067 1.34168,0.29218 2.87071,1.24813 3.39782,2.12433 1.19425,1.98512 5.07756,3.5521 10.18828,4.11111 5.46872,0.59816 18.20376,6.2203 25.51263,11.26304 6.05252,4.17595 17.45442,9.64387 22.60162,10.83888 4.55586,1.05772 13.56163,1.12303 16.33542,0.11845 2.63667,-0.95493 11.4503,-5.10232 13.34404,-6.27925 0.55922,-0.34756 1.62837,-0.86774 2.37586,-1.15597 5.26554,-2.03033 28.69948,-18.8312 42.19149,-30.24903 5.48535,-4.64206 18.37975,-17.48134 27.9576,-27.83808 7.08343,-7.65948 9.39481,-10.36197 13.73367,-16.05758 3.42453,-4.49536 6.31887,-7.36772 9.91141,-9.83612 2.79091,-1.91761 7.90845,-5.64164 11.3723,-8.27563 13.01634,-9.89784 41.94396,-27.34205 49.00113,-29.54911 1.62218,-0.50733 5.36573,-2.84915 8.31898,-5.20406 8.42436,-6.71752 26.7317,-18.41857 41.87074,-26.76149 21.05699,-11.60419 35.15814,-21.49689 58.35307,-40.93773 9.92021,-8.31465 21.5579,-19.27688 22.80444,-21.48089 2.44854,-4.32918 4.38182,1.00895 3.03877,8.39056 -0.92869,5.10429 -5.51522,12.72688 -10.52973,17.49999 -4.82386,4.59162 -14.32722,12.83294 -19.72947,17.10949 -2.53978,2.01053 -4.25513,3.59913 -3.81191,3.53023 2.81815,-0.43814 33.23669,-16.7775 43.57173,-23.40466 8.31307,-5.3306 22.8702,-16.50121 28.58278,-21.93331 2.71207,-2.57895 5.28828,-4.75333 5.72493,-4.83195 1.20179,-0.21641 2.0054,5.65328 1.36622,9.97992 -1.68382,11.39858 -9.00557,19.76413 -28.34296,32.3836 -8.80053,5.74317 -17.68093,10.50942 -26.99209,14.48712 -4.32153,1.84616 -8.11422,3.71961 -8.42817,4.16326 -0.79884,1.12893 0.17615,0.89025 12.69341,-3.10768 21.0967,-6.73809 38.37658,-13.382 61.23303,-23.54335 12.93873,-5.75221 16.91748,-7.14834 18.2547,-6.40551 1.44123,0.80063 1.4276,1.08235 -0.25256,5.20298 z" id="pandion-bird"/><path id="circle261-2" style="display:inline;fill:none;stroke:#000000;stroke-width:7.51897;stroke-linecap:round" d="M 101.75215,427.76181 A 319.55841,319.55841 0 0 1 442.57926,131.18141 319.55841,319.55841 0 0 1 739.34669,471.84567 319.55841,319.55841 0 0 1 398.84538,768.80005 319.55841,319.55841 0 0 1 101.70414,428.46179"/></svg>