<svg xmlns:xlink="http://www.w3.org/1999/xlink" xmlns="http://www.w3.org/2000/svg" xmlns:svg="http://www.w3.org/2000/svg" width="1200" zoomAndPan="magnify" viewBox="0 0 900 899.99999" height="1200" preserveAspectRatio="xMidYMid" version="1.2" id="svg287" xml:space="preserve"><defs id="defs259"><linearGradient xlink:href="#linearGradient289" id="linearGradient290" x1="465.61389" y1="134.98862" x2="465.61389" y2="788.23206" gradientUnits="userSpaceOnUse" gradientTransform="matrix(0.97590596,0,0,0.97590596,-4.3953968,-0.48826592)"/><linearGradient id="linearGradient289"><stop style="stop-color:#71fdbf;stop-opacity:1;" offset="0" id="stop289"/><stop style="stop-color:#fed273;stop-opacity:1;" offset="1" id="stop290"/></linearGradient><linearGradient xlink:href="#linearGradient289" id="linearGradient260" gradientUnits="userSpaceOnUse" gradientTransform="matrix(0.97590596,0,0,0.97590596,-4.3953998,-0.48824539)" x1="465.61389" y1="134.98862" x2="465.61389" y2="788.23206"/></defs><rect style="font-variation-settings:normal;display:inline;opacity:1;vector-effect:none;fill:#ffffff;fill-opacity:1;stroke:#000000;stroke-width:0.73193;stroke-linecap:butt;stroke-linejoin:miter;stroke-miterlimit:4;stroke-dasharray:none;stroke-dashoffset:0;stroke-opacity:1;-inkscape-stroke:none;stop-color:#000000;stop-opacity:1" id="white-background" width="900.25305" height="899.12061" x="-1.1388727" y="-0.006495384"/><g id="g261"><rect style="font-variation-settings:normal;display:inline;opacity:1;vector-effect:none;fill:url(#linearGradient290);fill-opacity:1;stroke:#000000;stroke-width:0.73193;stroke-linecap:butt;stroke-linejoin:miter;stroke-miterlimit:4;stroke-dasharray:none;stroke-dashoffset:0;stroke-opacity:1;-inkscape-stroke:none;stop-color:#000000;stop-opacity:1" id="background-logo-full" width="900.25305" height="899.12061" x="-1.1388727" y="-0.006495384"/></g><path style="fill:#000000;stroke-width:0.73979" d="m 822.09066,206.4127 c -4.51542,11.07405 -17.67098,20.60869 -43.93652,31.84357 -4.83906,2.06987 -11.01956,4.57961 -13.7344,5.57719 -2.71484,0.99757 -5.87351,2.24428 -7.01925,2.77046 -3.09509,1.42144 4.7867,-0.0222 20.37864,-3.73246 19.24028,-4.5785 40.83202,-8.81201 42.93507,-8.41832 6.16695,1.15442 -1.22332,10.74127 -13.36632,17.3392 -7.46463,4.05592 -12.70571,6.20753 -26.03764,10.68929 -9.76552,3.28284 -15.57835,5.69669 -14.88241,6.18012 0.19471,0.13523 6.35661,-0.10952 13.69315,-0.54387 14.11767,-0.83583 17.65709,-0.55164 19.32221,1.55144 0.80681,1.01899 0.79239,1.74806 -0.0664,3.36389 -1.92401,3.62009 -10.90504,9.87388 -19.49168,13.5728 -4.34628,1.87226 -8.07803,3.80881 -8.29277,4.30344 -0.21475,0.49461 -0.26778,1.60926 -0.11784,2.477 0.53965,3.12221 -9.18641,12.79562 -19.0876,18.98462 -2.70362,1.68995 -2.77892,1.85627 -1.89405,4.18139 0.69962,1.83827 0.64846,3.00046 -0.21254,4.82569 -1.63018,3.4557 -12.76719,11.74698 -19.46063,14.48803 -1.2826,0.52524 -1.9576,1.41358 -2.04431,2.6906 -0.19936,2.93406 -3.91887,6.71884 -10.78601,10.9752 -6.13216,3.80079 -6.2556,3.93434 -6.50126,7.03375 -0.13772,1.73767 -0.89545,3.80867 -1.68383,4.60223 -2.41463,2.4305 -11.66115,8.05488 -13.90721,8.45932 -1.83158,0.32981 -2.16596,0.78685 -2.45801,3.3597 -0.40221,3.5432 -0.71997,3.91924 -5.98289,7.07998 -2.23887,1.34458 -5.25765,3.2927 -6.7084,4.32914 -1.90312,1.35961 -2.93555,1.71612 -3.70712,1.28008 -0.81817,-0.46241 -1.26278,0.2334 -1.89278,2.96173 -0.84914,3.67755 -2.71702,6.05815 -5.62634,7.17074 -5.38017,2.05751 -5.33212,2.00522 -6.14352,6.68747 -0.43136,2.48921 -1.13123,4.9232 -1.55528,5.40885 -0.42403,0.48566 -2.99754,1.52736 -5.71888,2.31489 -5.84268,1.69078 -6.80317,2.19909 -6.57281,3.47839 0.0948,0.52702 -0.49433,2.11886 -1.3094,3.53742 -1.30213,2.26627 -1.9379,2.66139 -5.24012,3.25669 -3.73697,0.67364 -3.7658,0.69951 -5.10858,4.57265 -1.70155,4.90807 -2.49987,5.83867 -5.8747,6.84812 -4.55925,1.36373 -5.87188,2.11405 -5.66904,3.24053 0.10677,0.59295 -0.34328,1.85126 -1.00011,2.79625 -0.65683,0.94499 -1.14629,1.98447 -1.08768,2.30994 0.28609,1.58885 -3.62695,5.54158 -6.07617,6.13776 -2.04774,0.49845 -3.28099,1.56808 -5.7137,4.95557 -2.28242,3.17825 -3.82244,4.56402 -5.82722,5.24355 -1.92127,0.65121 -3.59117,2.0852 -5.66211,4.86216 -1.61546,2.1662 -3.40607,3.84928 -3.97912,3.74018 -0.57306,-0.10911 -2.47826,1.78908 -4.2338,4.21822 -3.47365,4.80647 -6.69301,7.31875 -9.13545,7.12898 -1.00784,-0.0784 -2.51475,0.87181 -4.25863,2.68513 -1.48439,1.54348 -3.38687,2.93108 -4.22774,3.08355 -0.84093,0.15217 -3.27911,1.83021 -5.4183,3.7283 -2.1392,1.89809 -4.72037,3.54661 -5.73595,3.66338 -1.07519,0.12362 -3.15127,1.54518 -4.97016,3.40324 -1.71801,1.75504 -3.64529,3.28489 -4.28284,3.39969 -0.63755,0.1148 -2.24903,1.27583 -3.58107,2.58006 -3.54287,3.46889 -6.68361,5.35728 -7.71674,4.63968 -0.57467,-0.39915 -1.93188,0.24518 -4.08456,1.93915 -1.77316,1.39532 -3.87801,2.48612 -4.67745,2.424 -1.46493,-0.11381 -4.76114,1.99232 -6.48405,4.14303 -0.77935,0.97285 -1.50314,1.02077 -4.43926,0.29393 -1.92945,-0.47762 -4.14423,-0.58128 -4.92175,-0.23035 -0.77751,0.35094 -1.90613,0.44407 -2.50804,0.20697 -1.97735,-0.77897 -3.47427,0.62333 -4.47955,4.19725 -0.97575,3.46852 -1.03945,3.52586 -4.47279,4.02499 -9.20911,1.33882 -6.82208,1.63875 -8.15451,2.42325 -2.25903,1.33005 -1.55229,1.04302 -2.00089,2.35786 -0.98221,2.87894 -0.85169,5.39589 0.54,4.86295 0.0764,-0.0293 0.41179,0.20936 0.38161,0.25639 -0.55862,0.8704 4.77497,6.69266 6.67548,7.4217 0.59508,0.22827 0.96229,0.71857 0.81602,1.08956 -0.14627,0.37097 0.27973,0.7784 0.94669,0.90538 0.66693,0.12697 1.07788,0.57258 0.91321,0.99024 -0.16467,0.41764 0.53704,1.1457 1.55935,1.61791 1.02231,0.47219 1.77387,1.06325 1.67015,1.31346 -0.22194,0.53529 8.69816,9.39681 9.38664,9.17205 0.14488,-0.0473 1.36436,0.61339 1.35103,0.6669 0.18705,1.00965 0.63263,2.05296 4.07483,5.55702 2.54195,2.58761 4.93995,4.64746 5.32891,4.57742 0.38894,-0.0701 0.58172,0.19091 0.42835,0.57988 -0.15337,0.38896 0.65109,1.40697 1.78769,2.26218 1.1366,0.85524 1.97941,1.68032 1.87291,1.83354 -0.31377,0.45143 23.36855,24.83323 24.798,25.53041 0.3787,0.18472 0.66042,0.47219 0.62603,0.63885 -0.0343,0.16665 0.43515,1.13022 1.04337,2.14125 0.60824,1.01103 1.6126,3.4197 2.23193,5.35258 0.9329,2.91147 0.92922,4.08159 -0.0214,6.82114 -1.10232,3.17654 -1.87458,3.84422 -5.79923,5.01383 -1.00076,0.29825 -1.71301,1.01373 -1.62251,1.62991 0.28627,1.94928 -1.49215,7.11634 -2.88794,8.39073 -0.84239,0.76913 -2.95468,1.43354 -5.57526,1.75367 l -4.21904,0.5154 -0.83869,3.45053 c -0.89922,3.69959 -2.68927,5.09565 -6.48185,5.05519 -1.64118,-0.0174 -2.38144,0.54808 -3.7879,2.89405 -1.4501,2.41875 -2.34884,3.08102 -5.27222,3.88501 -2.58939,0.71214 -3.92738,0.71794 -5.04444,0.0219 -0.91536,-0.57036 -2.22929,-0.67481 -3.30199,-0.26247 -0.97991,0.37667 -2.43393,0.35273 -3.23112,-0.0532 -1.90982,-0.97247 -4.14134,-0.55328 -6.42548,1.20706 -1.02151,0.78724 -3.2701,1.65659 -4.99688,1.93188 -1.72679,0.27528 -3.48996,0.91314 -3.91816,1.41742 -0.42819,0.50431 -1.96762,1.23674 -3.42096,1.62764 -2.32827,0.62624 -2.96825,0.42441 -5.38292,-1.69762 -3.36905,-2.9607 -5.65965,-7.39493 -8.17612,-15.82755 -2.33072,-7.81012 -3.8845,-12.23729 -9.44227,-26.90375 -4.87657,-12.86882 -7.42718,-18.43173 -13.52834,-29.50551 -2.38268,-4.3246 -5.0869,-10.15199 -6.0094,-12.94975 -0.92249,-2.79776 -2.19921,-5.84033 -2.83716,-6.76129 l -1.15987,-1.67445 -1.34314,2.33764 c -1.66918,2.90508 -6.68709,5.53684 -9.07991,4.76216 -2.99959,-0.97114 -5.71782,0.0555 -7.56378,2.85657 -2.63461,3.99787 -3.6034,4.53721 -6.85798,3.81794 -4.13076,-0.9129 -5.34516,-0.47731 -5.91152,2.12047 -0.322,1.4769 -1.38462,2.84387 -2.99151,3.8483 -1.37069,0.85677 -2.80733,2.5304 -3.19257,3.71919 -0.75485,2.32941 -2.75991,3.86744 -5.74181,4.40436 -1.06104,0.19106 -2.46043,1.2568 -3.23112,2.46073 -1.15853,1.80978 -2.00414,2.23979 -5.72047,2.90897 -2.39855,0.4319 -4.50038,1.13876 -4.67073,1.57082 -0.17035,0.43204 -1.9232,1.30238 -3.8952,1.93405 -2.77991,0.89048 -3.68807,1.55118 -4.04211,2.94064 -0.55954,2.19597 -1.93998,2.88246 -6.38684,3.17617 -2.70281,0.17851 -3.58003,0.53038 -4.12843,1.65597 -0.60257,1.23673 -2.4,1.7789 -13.34086,4.02407 -13.9653,2.8658 -17.30776,3.83588 -17.10458,4.96424 0.0901,0.50043 -1.6951,0.91267 -5.26618,1.21605 -4.47035,0.3798 -5.53303,0.68976 -6.15898,1.79647 -0.87485,1.54681 -4.0468,2.26714 -8.26021,1.87583 -2.5898,-0.24052 -3.1095,-0.0553 -4.28433,1.52722 -0.73535,0.99052 -2.2104,1.9582 -3.27788,2.15041 -2.99509,0.53932 -8.1859,-0.77072 -8.44398,-2.13106 -0.17963,-0.9466 -0.31886,-0.96567 -0.67457,-0.0924 -0.27609,0.67789 -1.06003,1.02119 -2.04114,0.89383 -1.18527,-0.15383 -1.81864,0.32447 -2.47523,1.86841 -1.06175,2.49713 -2.4032,2.83181 -5.91046,1.47462 -3.15696,-1.22163 -5.48412,-0.94396 -5.79588,0.69155 -0.5084,2.667 -2.53741,3.21984 -7.39098,2.01378 l -4.65903,-1.15771 -1.88132,1.92465 c -2.35421,2.40839 -4.54091,2.82315 -8.12055,1.54023 -6.16652,-2.21005 -6.05789,-2.21076 -9.17954,0.0598 -3.72441,2.70906 -4.40159,2.80297 -8.94388,1.24019 l -3.75504,-1.29191 -1.36452,1.83799 c -0.75047,1.01089 -1.75169,1.9077 -2.22491,1.99291 -0.47323,0.0852 -2.72837,1.20279 -5.01142,2.48351 l -4.15101,2.32859 -2.22356,-1.36865 c -1.22296,-0.75274 -2.76648,-1.71231 -3.43004,-2.13238 -1.00074,-0.63351 -1.42664,-0.47473 -2.49759,0.93121 -1.47248,1.93307 -7.12189,4.4124 -12.09425,5.30776 -2.40824,0.43363 -3.91211,0.25994 -5.24556,-0.60584 l -1.8694,-1.21375 -4.30546,2.32563 c -2.36801,1.2791 -6.19373,2.66565 -8.50162,3.08123 -3.83301,0.69019 -4.38546,0.58669 -6.38361,-1.19584 -2.04111,-1.82086 -2.34284,-1.8702 -4.51023,-0.73765 -2.41333,1.26105 -7.35925,2.54962 -12.5788,3.27721 -2.43428,0.33931 -3.62914,-0.004 -6.05037,-1.73856 -2.44981,-1.755 -3.24846,-1.97952 -4.24779,-1.19416 -2.14133,1.68285 -12.05099,4.80512 -16.00944,5.04413 -5.06053,0.30556 -7.56238,-0.80512 -8.06186,-3.579 -0.4833,-2.68407 -0.98739,-2.61697 -8.74032,1.16359 -3.26736,1.59326 -7.03696,3.38451 -8.37687,3.98054 -3.1068,1.38199 -11.65991,1.90602 -13.2365,0.81096 -1.92444,-1.33668 -0.21511,-5.97358 3.88222,-10.53131 4.65514,-5.17823 9.69037,-12.67832 8.34479,-12.42977 -1.48218,0.27366 -4.73128,3.47939 -4.02433,3.97042 0.31888,0.22148 -0.0408,0.51444 -0.79914,0.651 -0.75842,0.13656 -4.76,3.23184 -8.89239,6.8784 -8.707404,7.68371 -18.523109,13.6405 -25.580368,15.52379 -6.267021,1.67241 -9.315155,1.38197 -9.73096,-0.92722 -0.254952,-1.41588 1.924423,-3.99888 12.081885,-14.31944 16.712168,-16.98051 31.685063,-32.99539 35.510883,-37.98215 2.48985,-3.24536 2.83959,-4.05426 1.67389,-3.87134 -0.8105,0.12716 -2.7939,1.32473 -4.40758,2.6612 -7.71832,6.39243 -26.78241,19.50305 -33.939908,23.3409 -1.979711,1.06152 -3.541748,2.25062 -3.471194,2.64245 0.07056,0.39183 -0.187633,0.58796 -0.573752,0.43586 -0.386118,-0.15211 -3.144807,0.66288 -6.130419,1.81108 -7.971037,3.0655 -16.276055,4.33522 -22.348451,3.41675 -5.603571,-0.84757 -6.879692,-2.22468 -4.313163,-4.65451 0.883215,-0.83617 7.559601,-5.09211 14.836414,-9.45765 21.199435,-12.71806 32.417498,-20.62609 52.118023,-36.73999 7.98015,-6.52731 9.84577,-8.37998 9.01767,-8.95516 -0.68982,-0.47913 -5.72772,2.22344 -11.05688,5.93145 -1.84164,1.28139 -5.51379,3.45626 -8.16036,4.83304 -2.64656,1.37677 -5.417733,2.89661 -6.158142,3.3774 -2.116492,1.37434 -23.134154,9.28335 -30.62844,11.52557 -10.692304,3.19903 -23.184991,3.56562 -31.966618,0.93804 -4.573195,-1.36836 -9.912944,-5.24734 -9.010578,-6.54558 0.326089,-0.46915 5.202752,-2.1638 10.837031,-3.76591 5.634279,-1.6021 13.436358,-3.9934 17.337955,-5.31401 3.901597,-1.32058 9.330543,-3.13123 12.064324,-4.02365 2.733781,-0.89241 8.126881,-2.88201 11.984667,-4.42132 3.857787,-1.5393 8.593726,-3.39894 10.52431,-4.13252 1.930594,-0.73357 4.274597,-1.80745 5.208886,-2.38636 0.934298,-0.57893 4.359845,-2.24418 7.612308,-3.70057 5.894367,-2.63937 23.496457,-12.09626 25.363327,-13.6267 1.56298,-1.28131 -1.27492,-0.58738 -6.12089,1.49671 -6.83339,2.9388 -31.039831,8.51836 -39.812985,9.17684 -8.352429,0.62691 -12.485905,0.19777 -20.271958,-2.10461 -5.597727,-1.6553 -10.430167,-4.90372 -9.431754,-6.34016 0.319126,-0.45913 2.33072,-1.13629 4.470207,-1.5048 7.776278,-1.33944 43.95629,-10.04937 59.32829,-14.28267 26.38719,-7.26677 39.87586,-12.02976 52.4091,-18.50623 8.87429,-4.58573 26.37627,-11.47827 31.47988,-12.39725 2.79435,-0.50317 6.40612,-2.05422 11.76468,-5.05232 7.87082,-4.40367 27.17409,-12.48111 31.83102,-13.31966 1.4115,-0.25416 5.13725,-1.31288 8.27944,-2.35272 4.9855,-1.64984 6.86029,-1.90015 14.72132,-1.96552 11.57891,-0.0963 12.66861,-0.22168 31.30338,-3.60206 16.33712,-2.96362 20.93944,-4.32194 39.97686,-11.79888 8.82415,-3.46568 23.01833,-10.83484 23.26169,-12.0767 0.0718,-0.36656 0.75868,-0.77957 1.52632,-0.91779 0.76764,-0.13823 1.34601,-0.5274 1.28524,-0.86483 -0.0608,-0.33744 1.25709,-1.65976 2.92857,-2.9385 3.17062,-2.42568 10.0679,-12.45962 11.44526,-16.65023 0.54622,-1.6619 0.47256,-4.26164 -0.23387,-8.25296 -0.85917,-4.85409 -1.48576,-6.45991 -3.75363,-9.61914 -6.24869,-8.70472 -8.01431,-14.55439 -6.1839,-20.48786 0.83561,-2.70869 0.4313,-6.51085 -1.14219,-10.74126 -0.87502,-2.35256 -0.83938,-3.09364 0.21444,-4.45924 1.11343,-1.44284 1.5535,-1.57471 3.69715,-1.10787 1.3383,0.29145 2.86347,1.24498 3.38925,2.11897 1.19123,1.98011 5.06475,3.54314 10.16257,4.10074 5.45492,0.59665 18.15783,6.2046 25.44825,11.23462 6.03725,4.16541 17.41038,9.61953 22.54459,10.81153 4.54436,1.05505 13.52741,1.12019 16.2942,0.11815 2.63002,-0.95252 11.42141,-5.08945 13.31037,-6.26341 0.55781,-0.34668 1.62426,-0.86555 2.36986,-1.15305 5.25226,-2.02521 28.62706,-18.78368 42.08503,-30.1727 5.47151,-4.63035 18.33337,-17.43723 27.88705,-27.76784 7.06556,-7.64015 9.37111,-10.33582 13.69902,-16.01706 3.41589,-4.48401 6.30292,-7.34912 9.8864,-9.8113 2.78387,-1.91277 7.88849,-5.6274 11.3436,-8.25474 12.9835,-9.87287 41.83812,-27.27306 48.87748,-29.47455 1.61809,-0.50605 5.35219,-2.84196 8.29799,-5.19093 8.4031,-6.70057 26.66425,-18.37209 41.76509,-26.69396 21.00385,-11.57491 35.06942,-21.44265 58.20582,-40.83443 9.89518,-8.29367 21.5035,-19.22824 22.7469,-21.42669 2.44236,-4.31825 4.37076,1.00641 3.0311,8.36939 -0.92635,5.09141 -5.5013,12.69477 -10.50316,17.45583 -4.81169,4.58004 -14.29107,12.80056 -19.67968,17.06632 -2.53338,2.00546 -4.2444,3.59005 -3.8023,3.52132 2.81104,-0.43703 33.15283,-16.73516 43.46179,-23.3456 8.29209,-5.31715 22.81249,-16.45957 28.51065,-21.87797 2.70523,-2.57244 5.27494,-4.74133 5.71049,-4.81975 1.19875,-0.21587 2.00034,5.63901 1.36277,9.95473 -1.67957,11.36982 -8.98285,19.71426 -28.27144,32.30189 -8.77832,5.72868 -17.63632,10.4829 -26.92398,14.45056 -4.31063,1.8415 -8.09375,3.71023 -8.4069,4.15276 -0.79683,1.12608 0.1757,0.888 12.66138,-3.09984 21.04346,-6.72109 38.27974,-13.34823 61.07851,-23.48394 12.90609,-5.7377 16.8748,-7.1303 18.20864,-6.38935 1.43759,0.79861 1.424,1.07962 -0.25192,5.18985 z" id="pandion-bird"/><g id="pandion-text" style="font-weight:800;font-size:101.942px;font-family:Montserrat;-inkscape-font-specification:'Montserrat, Ultra-Bold';stroke-width:8.49518" aria-label="Pandion&#10;Labs"><path d="m 89.488922,290.78931 h 20.184518 v -18.65539 h 12.43692 c 19.47092,0 31.70396,-10.09226 31.70396,-26.30104 0,-16.31072 -12.23304,-26.40297 -31.70396,-26.40297 H 89.488922 Z m 20.184518,-34.55834 v -20.89811 h 11.21362 c 8.35924,0 12.53886,3.87379 12.53886,10.50002 0,6.52429 -4.17962,10.39809 -12.53886,10.39809 z m 86.24294,34.55834 h 18.04374 v -30.68455 c 0,-17.53402 -10.29615,-25.4855 -28.23794,-25.4855 -8.66507,0 -18.04373,2.24273 -24.36414,6.42235 l 6.52429,13.15052 c 3.77185,-2.95632 9.68449,-4.79128 14.98547,-4.79128 7.64565,0 11.31557,3.16021 11.72333,8.76702 H 183.5814 c -17.12626,0 -24.56802,6.3204 -24.56802,16.5146 0,9.58255 7.33982,17.02431 20.59228,17.02431 7.95148,0 13.45634,-2.75243 16.31072,-7.95147 z m -1.32525,-17.73791 c -1.52913,4.3835 -5.30098,6.42234 -9.58254,6.42234 -4.58739,0 -7.23789,-2.34466 -7.23789,-5.60681 0,-3.36408 2.24273,-5.60681 8.46119,-5.60681 h 8.35924 z m 31.60205,17.73791 h 19.36898 V 264.0805 c 0,-9.17478 4.79127,-13.04857 11.00973,-13.04857 5.60681,0 9.07284,3.36408 9.07284,11.31556 v 28.44182 h 19.36898 v -31.60202 c 0,-17.12626 -9.88837,-24.56803 -22.83501,-24.56803 -7.03399,0 -13.15051,2.34467 -17.53402,6.93206 v -6.01458 h -18.4515 z m 95.72344,0.91747 c 7.13594,0 12.53887,-2.03884 16.20878,-6.42234 v 5.50487 h 18.4515 v -75.64097 h -19.36898 v 25.17968 c -3.66991,-3.8738 -8.86895,-5.70876 -15.2913,-5.70876 -15.08741,0 -27.21851,10.9078 -27.21851,28.44182 0,17.63597 12.1311,28.6457 27.21851,28.6457 z m 4.07768,-15.39324 c -6.62623,0 -11.62139,-4.79127 -11.62139,-13.25246 0,-8.35924 4.99516,-13.04857 11.62139,-13.04857 6.52429,0 11.51945,4.68933 11.51945,13.04857 0,8.46119 -4.99516,13.25246 -11.51945,13.25246 z m 43.01953,14.47577 h 19.36898 v -55.25257 h -19.36898 z m 9.68449,-61.36909 c 7.23788,0 11.92721,-4.48545 11.92721,-10.60197 0,-5.81069 -4.79127,-9.99031 -11.92721,-9.99031 -7.034,0 -11.82528,4.48545 -11.82528,10.29614 0,5.81069 4.79128,10.29614 11.82528,10.29614 z m 49.95154,62.28656 c 18.24762,0 31.19425,-11.92721 31.19425,-28.6457 0,-16.61654 -12.94663,-28.44182 -31.19425,-28.44182 -18.04374,0 -31.19426,11.82528 -31.19426,28.44182 0,16.71849 13.15052,28.6457 31.19426,28.6457 z m 0,-15.39324 c -6.52429,0 -11.62139,-4.79127 -11.62139,-13.25246 0,-8.35924 5.0971,-13.04857 11.62139,-13.04857 6.62623,0 11.62139,4.68933 11.62139,13.04857 0,8.46119 -4.99516,13.25246 -11.62139,13.25246 z m 40.16521,14.47577 h 19.36898 V 264.0805 c 0,-9.17478 4.79127,-13.04857 11.00973,-13.04857 5.60681,0 9.07284,3.36408 9.07284,11.31556 v 28.44182 h 19.36898 v -31.60202 c 0,-17.12626 -9.88837,-24.56803 -22.83501,-24.56803 -7.034,0 -13.15052,2.34467 -17.53402,6.93206 v -6.01458 h -18.4515 z" id="path263"/><path d="m 89.488922,418.21681 h 54.233148 v -16.0049 h -34.04863 v -55.3545 H 89.488922 Z m 95.723598,0 h 18.04373 v -30.68454 c 0,-17.53403 -10.29614,-25.4855 -28.23793,-25.4855 -8.66507,0 -18.04373,2.24272 -24.36414,6.42234 l 6.52429,13.15052 c 3.77185,-2.95632 9.68449,-4.79127 14.98547,-4.79127 7.64565,0 11.31557,3.1602 11.72333,8.76701 h -11.00973 c -17.12626,0 -24.56802,6.3204 -24.56802,16.5146 0,9.58255 7.33982,17.02432 20.59228,17.02432 7.95148,0 13.45634,-2.75244 16.31072,-7.95148 z m -1.32525,-17.73791 c -1.52913,4.38351 -5.30098,6.42235 -9.58254,6.42235 -4.58739,0 -7.23789,-2.34467 -7.23789,-5.60681 0,-3.36409 2.24273,-5.60681 8.46119,-5.60681 h 8.35924 z m 66.36427,18.65539 c 14.98548,0 27.11658,-11.00974 27.11658,-28.64571 0,-17.53402 -12.1311,-28.44181 -27.11658,-28.44181 -6.42234,0 -11.62138,1.83495 -15.39324,5.70875 v -25.17968 h -19.36898 v 75.64097 h 18.4515 v -5.50487 c 3.66992,4.38351 9.17478,6.42235 16.31072,6.42235 z m -4.07768,-15.39325 c -6.52428,0 -11.62138,-4.79127 -11.62138,-13.25246 0,-8.35924 5.0971,-13.04857 11.62138,-13.04857 6.52429,0 11.62139,4.68933 11.62139,13.04857 0,8.46119 -5.0971,13.25246 -11.62139,13.25246 z m 60.24769,15.39325 c 17.94179,0 27.32046,-7.95148 27.32046,-18.14568 0,-13.76217 -12.8447,-15.59713 -22.42724,-17.02431 -5.60681,-0.81554 -10.09226,-1.42719 -10.09226,-4.28157 0,-2.03884 2.34466,-3.87379 8.86895,-3.87379 4.89322,0 10.39809,1.01942 15.90295,4.07768 l 5.8107,-13.15052 c -5.50487,-3.05826 -14.068,-4.68933 -21.81559,-4.68933 -17.33014,0 -26.91269,7.95147 -26.91269,18.34956 0,13.96605 13.04858,15.80101 22.73307,17.02431 5.50487,0.71359 9.88837,1.32525 9.88837,4.07768 0,2.34467 -2.14078,3.77185 -8.66507,3.77185 -6.72817,0 -14.16994,-1.93689 -19.26704,-5.0971 l -5.81069,13.25246 c 5.40293,3.36409 15.08742,5.70876 24.46608,5.70876 z" id="path264"/></g><g id="circle-black"><path style="display:inline;fill:none;stroke:#000000;stroke-width:7.5;stroke-linecap:round;stroke-dasharray:none;stroke-opacity:1" id="circle261" d="M 214.15579,235.5696 A 318.75208,318.75208 0 0 1 622.18291,181.75397 318.75208,318.75208 0 0 1 743.16376,575.1315 318.75208,318.75208 0 0 1 375.41108,759.90221 318.75208,318.75208 0 0 1 132.00564,428.0347"/><path style="display:inline;fill:none;stroke:#000000;stroke-width:7.5;stroke-linecap:round;stroke-dasharray:none;stroke-opacity:1" id="path262" d="m 136.5544,392.0799 a 318.75208,318.75208 0 0 1 31.99178,-91.70153"/></g></svg>